<svg width="1440" height="193" viewBox="0 0 1440 193" fill="none" xmlns="http://www.w3.org/2000/svg">
<path d="M0 19.3032L34.3 20.8032C68.7 22.3032 137.3 25.3032 205.8 27.1032C274.3 29.0032 342.7 29.6032 411.2 25.8032C479.7 22.0032 548.3 13.6032 617 8.30322C685.7 3.00322 754.3 0.603224 823 0.103224C891.7 -0.396776 960.3 1.00322 1028.8 2.50322C1097.3 4.00322 1165.7 5.60322 1234.2 7.30322C1302.7 9.00322 1371.3 10.6032 1405.7 11.5032L1440 12.3032V192.303H1405.7C1371.3 192.303 1302.7 192.303 1234.2 192.303C1165.7 192.303 1097.3 192.303 1028.8 192.303C960.3 192.303 891.7 192.303 823 192.303C754.3 192.303 685.7 192.303 617 192.303C548.3 192.303 479.7 192.303 411.2 192.303C342.7 192.303 274.3 192.303 205.8 192.303C137.3 192.303 68.7 192.303 34.3 192.303H0V19.3032Z" fill="#296EBF"/>
<path d="M0 48.3032L34.3 49.8032C68.7 51.3032 137.3 54.3032 205.8 53.3032C274.3 52.3032 342.7 47.3032 411.2 44.1032C479.7 41.0032 548.3 39.6032 617 39.3032C685.7 39.0032 754.3 39.6032 823 43.5032C891.7 47.3032 960.3 54.3032 1028.8 56.6032C1097.3 59.0032 1165.7 56.6032 1234.2 57.3032C1302.7 58.0032 1371.3 61.6032 1405.7 63.5032L1440 65.3032V192.303H1405.7C1371.3 192.303 1302.7 192.303 1234.2 192.303C1165.7 192.303 1097.3 192.303 1028.8 192.303C960.3 192.303 891.7 192.303 823 192.303C754.3 192.303 685.7 192.303 617 192.303C548.3 192.303 479.7 192.303 411.2 192.303C342.7 192.303 274.3 192.303 205.8 192.303C137.3 192.303 68.7 192.303 34.3 192.303H0V48.3032Z" fill="#0F5694"/>
<path d="M0 70.3032L34.3 74.0032C68.7 77.6032 137.3 85.0032 205.8 87.0032C274.3 89.0032 342.7 85.6032 411.2 84.5032C479.7 83.3032 548.3 84.3032 617 84.3032C685.7 84.3032 754.3 83.3032 823 85.5032C891.7 87.6032 960.3 93.0032 1028.8 91.0032C1097.3 89.0032 1165.7 79.6032 1234.2 74.8032C1302.7 70.0032 1371.3 69.6032 1405.7 69.5032L1440 69.3032V192.303H1405.7C1371.3 192.303 1302.7 192.303 1234.2 192.303C1165.7 192.303 1097.3 192.303 1028.8 192.303C960.3 192.303 891.7 192.303 823 192.303C754.3 192.303 685.7 192.303 617 192.303C548.3 192.303 479.7 192.303 411.2 192.303C342.7 192.303 274.3 192.303 205.8 192.303C137.3 192.303 68.7 192.303 34.3 192.303H0V70.3032Z" fill="#013F6A"/>
<path d="M0 116.303L34.3 117.503C68.7 118.603 137.3 121.003 205.8 123.303C274.3 125.603 342.7 128.003 411.2 126.503C479.7 125.003 548.3 119.603 617 117.303C685.7 115.003 754.3 115.603 823 116.303C891.7 117.003 960.3 117.603 1028.8 120.003C1097.3 122.303 1165.7 126.303 1234.2 127.503C1302.7 128.603 1371.3 127.003 1405.7 126.103L1440 125.303V192.303H1405.7C1371.3 192.303 1302.7 192.303 1234.2 192.303C1165.7 192.303 1097.3 192.303 1028.8 192.303C960.3 192.303 891.7 192.303 823 192.303C754.3 192.303 685.7 192.303 617 192.303C548.3 192.303 479.7 192.303 411.2 192.303C342.7 192.303 274.3 192.303 205.8 192.303C137.3 192.303 68.7 192.303 34.3 192.303H0V116.303Z" fill="#012843"/>
<path d="M0 141.303L34.3 142.603C68.7 144.003 137.3 146.603 205.8 150.803C274.3 155.003 342.7 160.603 411.2 162.803C479.7 165.003 548.3 163.603 617 159.003C685.7 154.303 754.3 146.303 823 147.803C891.7 149.303 960.3 160.303 1028.8 163.103C1097.3 166.003 1165.7 160.603 1234.2 159.603C1302.7 158.603 1371.3 162.003 1405.7 163.603L1440 165.303V192.303H1405.7C1371.3 192.303 1302.7 192.303 1234.2 192.303C1165.7 192.303 1097.3 192.303 1028.8 192.303C960.3 192.303 891.7 192.303 823 192.303C754.3 192.303 685.7 192.303 617 192.303C548.3 192.303 479.7 192.303 411.2 192.303C342.7 192.303 274.3 192.303 205.8 192.303C137.3 192.303 68.7 192.303 34.3 192.303H0V141.303Z" fill="#001220"/>
</svg>
