<svg width="1440" height="300" viewBox="0 0 1440 300" fill="none" xmlns="http://www.w3.org/2000/svg">
<g clip-path="url(#clip0_164_51)">
<path d="M1440 0H0V300H1440V0Z" fill="#001220"/>
<path d="M0 128L34.3 129.5C68.7 131 137.3 134 205.8 135.8C274.3 137.7 342.7 138.3 411.2 134.5C479.7 130.7 548.3 122.3 617 117C685.7 111.7 754.3 109.3 823 108.8C891.7 108.3 960.3 109.7 1028.8 111.2C1097.3 112.7 1165.7 114.3 1234.2 116C1302.7 117.7 1371.3 119.3 1405.7 120.2L1440 121V301H1405.7C1371.3 301 1302.7 301 1234.2 301C1165.7 301 1097.3 301 1028.8 301C960.3 301 891.7 301 823 301C754.3 301 685.7 301 617 301C548.3 301 479.7 301 411.2 301C342.7 301 274.3 301 205.8 301C137.3 301 68.7 301 34.3 301H0V128Z" fill="#296EBF"/>
<path d="M0 157L34.3 158.5C68.7 160 137.3 163 205.8 162C274.3 161 342.7 156 411.2 152.8C479.7 149.7 548.3 148.3 617 148C685.7 147.7 754.3 148.3 823 152.2C891.7 156 960.3 163 1028.8 165.3C1097.3 167.7 1165.7 165.3 1234.2 166C1302.7 166.7 1371.3 170.3 1405.7 172.2L1440 174V301H1405.7C1371.3 301 1302.7 301 1234.2 301C1165.7 301 1097.3 301 1028.8 301C960.3 301 891.7 301 823 301C754.3 301 685.7 301 617 301C548.3 301 479.7 301 411.2 301C342.7 301 274.3 301 205.8 301C137.3 301 68.7 301 34.3 301H0V157Z" fill="#0F5694"/>
<path d="M0 179L34.3 182.7C68.7 186.3 137.3 193.7 205.8 195.7C274.3 197.7 342.7 194.3 411.2 193.2C479.7 192 548.3 193 617 193C685.7 193 754.3 192 823 194.2C891.7 196.3 960.3 201.7 1028.8 199.7C1097.3 197.7 1165.7 188.3 1234.2 183.5C1302.7 178.7 1371.3 178.3 1405.7 178.2L1440 178V301H1405.7C1371.3 301 1302.7 301 1234.2 301C1165.7 301 1097.3 301 1028.8 301C960.3 301 891.7 301 823 301C754.3 301 685.7 301 617 301C548.3 301 479.7 301 411.2 301C342.7 301 274.3 301 205.8 301C137.3 301 68.7 301 34.3 301H0V179Z" fill="#013F6A"/>
<path d="M0 225L34.3 226.2C68.7 227.3 137.3 229.7 205.8 232C274.3 234.3 342.7 236.7 411.2 235.2C479.7 233.7 548.3 228.3 617 226C685.7 223.7 754.3 224.3 823 225C891.7 225.7 960.3 226.3 1028.8 228.7C1097.3 231 1165.7 235 1234.2 236.2C1302.7 237.3 1371.3 235.7 1405.7 234.8L1440 234V301H1405.7C1371.3 301 1302.7 301 1234.2 301C1165.7 301 1097.3 301 1028.8 301C960.3 301 891.7 301 823 301C754.3 301 685.7 301 617 301C548.3 301 479.7 301 411.2 301C342.7 301 274.3 301 205.8 301C137.3 301 68.7 301 34.3 301H0V225Z" fill="#012843"/>
<path d="M0 250L34.3 251.3C68.7 252.7 137.3 255.3 205.8 259.5C274.3 263.7 342.7 269.3 411.2 271.5C479.7 273.7 548.3 272.3 617 267.7C685.7 263 754.3 255 823 256.5C891.7 258 960.3 269 1028.8 271.8C1097.3 274.7 1165.7 269.3 1234.2 268.3C1302.7 267.3 1371.3 270.7 1405.7 272.3L1440 274V301H1405.7C1371.3 301 1302.7 301 1234.2 301C1165.7 301 1097.3 301 1028.8 301C960.3 301 891.7 301 823 301C754.3 301 685.7 301 617 301C548.3 301 479.7 301 411.2 301C342.7 301 274.3 301 205.8 301C137.3 301 68.7 301 34.3 301H0V250Z" fill="#001220"/>
</g>
<defs>
<clipPath id="clip0_164_51">
<rect width="1440" height="300" fill="white"/>
</clipPath>
</defs>
</svg>
