<svg width="151" height="77" viewBox="0 0 151 77" fill="none" xmlns="http://www.w3.org/2000/svg">
<path d="M48.9164 8.34909C48.2764 7.65091 47.4764 7.02541 46.5164 6.47273C45.5854 5.92005 44.2473 5.64364 42.5018 5.64364C40.6691 5.64364 39.3018 5.97814 38.4 6.64728C37.4982 7.28723 37.0473 8.11632 37.0473 9.1345C37.0473 9.4836 37.1346 9.8618 37.3091 10.2691C37.4836 10.6764 37.8327 11.0691 38.3564 11.4473C38.88 11.8254 39.6218 12.16 40.5818 12.4509L47.4764 14.4145C50.1528 15.1418 52.1018 16.32 53.3236 17.9491C54.5455 19.549 55.1564 21.411 55.1564 23.5345C55.1564 25.5709 54.6327 27.3455 53.5855 28.8582C52.5382 30.3418 51.04 31.491 49.0909 32.3055C47.1419 33.12 44.8291 33.5273 42.1527 33.5273C40.1745 33.5273 38.3127 33.3091 36.5673 32.8727C34.8509 32.4073 33.3236 31.7528 31.9855 30.9091C30.6764 30.0364 29.6437 29.0327 28.8873 27.8982C28.7418 27.6073 28.6837 27.3745 28.7127 27.2C28.7418 26.9964 28.8873 26.7927 29.1491 26.5891L32.5091 24.2764C32.8582 24.0728 33.1346 23.9855 33.3382 24.0145C33.571 24.0436 33.7746 24.16 33.9491 24.3636C34.6473 25.2364 35.3309 25.9636 36 26.5455C36.6982 27.1273 37.4982 27.5491 38.4 27.8109C39.3018 28.0727 40.3782 28.2036 41.6291 28.2036C43.5201 28.2036 45.0327 27.9128 46.1673 27.3309C47.3018 26.72 47.8691 25.789 47.8691 24.5382C47.8691 24.0436 47.7528 23.5928 47.52 23.1855C47.2872 22.7491 46.9091 22.371 46.3855 22.0509C45.8909 21.7018 45.1782 21.3818 44.2473 21.0909L37.6582 19.2145C35.9418 18.72 34.5018 18.0218 33.3382 17.12C32.1746 16.2182 31.2873 15.1564 30.6764 13.9345C30.0945 12.7127 29.8036 11.4327 29.8036 10.0945C29.8036 8.23277 30.3127 6.56 31.3309 5.07637C32.3782 3.59273 33.8328 2.4291 35.6946 1.58546C37.5855 0.712727 39.7818 0.276367 42.2836 0.276367C43.9418 0.276367 45.4837 0.465457 46.9091 0.843637C48.3637 1.22182 49.6728 1.74545 50.8364 2.41455C52 3.08364 52.9455 3.89818 53.6727 4.85818C53.7891 5.00368 53.8763 5.17823 53.9346 5.38182C53.9928 5.55637 53.9055 5.7455 53.6727 5.94909L50.0073 8.65455C49.8327 8.77087 49.6728 8.8145 49.5273 8.78546C49.3818 8.72723 49.1782 8.58187 48.9164 8.34909ZM66.7968 0.712727C67.2622 0.712727 67.495 0.974547 67.495 1.49819V32.0436C67.495 32.4218 67.3931 32.6982 67.1895 32.8727C67.015 33.0182 66.724 33.0909 66.3168 33.0909H60.8186C60.4403 33.0909 60.1785 33.0182 60.0331 32.8727C59.9167 32.7272 59.8586 32.4946 59.8586 32.1745V1.54182C59.8586 0.989097 60.0912 0.712727 60.5568 0.712727H66.7968ZM99.8918 31.9127C100.008 32.2328 99.9937 32.509 99.8482 32.7418C99.7319 32.9746 99.5281 33.0909 99.2373 33.0909H92.8227C92.3281 33.0909 92.0082 32.8291 91.8627 32.3055L87.15 20.0873C86.9755 19.68 86.5681 19.4764 85.9282 19.4764H81.7827C81.5791 19.4764 81.4336 19.5346 81.3464 19.6509C81.2881 19.7672 81.2591 19.8691 81.2591 19.9564V32.0436C81.2591 32.7418 80.8664 33.0909 80.0809 33.0909H74.5391C74.19 33.0909 73.9428 33.0182 73.7973 32.8727C73.681 32.7272 73.6227 32.509 73.6227 32.2182V1.54182C73.6227 0.989097 73.8555 0.712727 74.3209 0.712727H87.9355C91.8337 0.712727 94.8591 1.48363 97.0118 3.02546C99.1936 4.56732 100.285 6.76359 100.285 9.6145C100.285 11.0982 100.008 12.4219 99.4555 13.5855C98.9028 14.749 98.1754 15.7236 97.2736 16.5091C96.3719 17.2655 95.3827 17.8328 94.3064 18.2109C94.0446 18.2982 93.9863 18.5164 94.1318 18.8655L99.8918 31.9127ZM87.2373 14.3273C88.8955 14.3273 90.1609 13.9782 91.0337 13.28C91.9354 12.5528 92.3864 11.5055 92.3864 10.1382C92.3864 8.71278 91.9354 7.63632 91.0337 6.90909C90.1319 6.18187 88.9391 5.81818 87.4555 5.81818H82.0882C81.5355 5.81818 81.2591 6.06541 81.2591 6.56V13.5855C81.2591 14.08 81.4627 14.3273 81.87 14.3273H87.2373ZM37.2655 44.3491C37.7309 44.3491 37.9636 44.6109 37.9636 45.1345V75.68C37.9636 76.0581 37.8618 76.3345 37.6582 76.5091C37.4836 76.6546 37.1928 76.7273 36.7855 76.7273H31.2873C30.9091 76.7273 30.6473 76.6546 30.5018 76.5091C30.3855 76.3636 30.3273 76.1309 30.3273 75.8109V45.1782C30.3273 44.6255 30.5601 44.3491 31.0255 44.3491H37.2655ZM43.1316 76.7273C42.8697 76.7273 42.6806 76.6109 42.5643 76.3782C42.4478 76.1454 42.4478 75.8399 42.5643 75.4618L53.4297 45.2218C53.5461 44.9018 53.677 44.6836 53.8225 44.5673C53.9678 44.4218 54.2152 44.3491 54.5643 44.3491H61.1097C61.7497 44.3491 62.1861 44.6691 62.4188 45.3091L73.197 75.5491C73.2843 75.7819 73.2843 76.0437 73.197 76.3345C73.1097 76.5964 72.9352 76.7273 72.6734 76.7273H66.2588C65.8225 76.7273 65.5461 76.5237 65.4297 76.1164L63.1606 69.7454C63.1315 69.5999 63.0734 69.4836 62.9861 69.3964C62.9279 69.3091 62.797 69.2654 62.5934 69.2654H51.9461C51.6551 69.2654 51.4661 69.4109 51.3788 69.7018L49.0661 76.16C49.0079 76.3345 48.906 76.48 48.7606 76.5964C48.6442 76.6836 48.4406 76.7273 48.1497 76.7273H43.1316ZM60.8043 63.4618C61.2115 63.4618 61.3424 63.2146 61.197 62.72L57.5316 52.5091C57.4443 52.3345 57.3424 52.2473 57.2261 52.2473C57.1388 52.2473 57.0516 52.3491 56.9643 52.5527L53.2552 62.72C53.0515 63.2146 53.1824 63.4618 53.6479 63.4618H60.8043ZM104.2 44.3491C104.578 44.3491 104.767 44.5673 104.767 45.0036V76.0291C104.767 76.2327 104.694 76.4072 104.549 76.5527C104.404 76.669 104.2 76.7273 103.938 76.7273H99.5309C99.2981 76.7273 99.109 76.6982 98.9636 76.64C98.8181 76.5818 98.6436 76.4364 98.44 76.2036L84.52 56.6545C84.4035 56.509 84.2872 56.4509 84.1709 56.48C84.0836 56.509 84.04 56.5963 84.04 56.7418V75.9418C84.069 76.4654 83.7781 76.7273 83.1672 76.7273H78.6291C78.0472 76.7273 77.7563 76.48 77.7563 75.9854V45.1782C77.7563 44.6255 78.0181 44.3491 78.5418 44.3491H83.8218C84.1417 44.3491 84.3745 44.3927 84.52 44.48C84.6945 44.5673 84.8835 44.7418 85.0872 45.0036L97.9163 63.2873C98.0909 63.52 98.2362 63.6218 98.3527 63.5927C98.4981 63.5637 98.5709 63.4182 98.5709 63.1564V45.1345C98.5709 44.6109 98.8327 44.3491 99.3562 44.3491H104.2ZM117.805 44.3491C118.271 44.3491 118.503 44.6109 118.503 45.1345V75.68C118.503 76.0581 118.402 76.3345 118.198 76.5091C118.023 76.6546 117.733 76.7273 117.325 76.7273H111.827C111.449 76.7273 111.187 76.6546 111.042 76.5091C110.925 76.3636 110.867 76.1309 110.867 75.8109V45.1782C110.867 44.6255 111.1 44.3491 111.565 44.3491H117.805Z" fill="white"/>
<path d="M150.367 64.5309V57.8855L127 49V55.1364L150.367 64.5309Z" fill="#0C2D54"/>
<path d="M127 73.5309V66.8855L150.367 58V64.1364L127 73.5309Z" fill="#296EBF"/>
<path d="M0 19.5309V12.8855L23.3673 4V10.1364L0 19.5309Z" fill="#0C2D54"/>
<path d="M23.3673 28.5309V21.8855L0 13V19.1364L23.3673 28.5309Z" fill="#296EBF"/>
</svg>
