<svg width="60" height="60" viewBox="0 0 60 60" fill="none" xmlns="http://www.w3.org/2000/svg">
<g clip-path="url(#clip0_164_125)">
<path d="M10.625 4.83609e-06H49.375C50.7707 -0.00134432 52.1529 0.279605 53.4426 0.826775C54.7322 1.37394 55.9041 2.17659 56.8909 3.18878C57.8778 4.20097 58.6604 5.40283 59.1939 6.72558C59.7274 8.04832 60.0013 9.46599 60 10.8974V49.1026C60.0013 50.534 59.7274 51.9517 59.1939 53.2744C58.6604 54.5972 57.8778 55.799 56.8909 56.8112C55.9041 57.8234 54.7322 58.6261 53.4426 59.1732C52.1529 59.7204 50.7707 60.0013 49.375 60H10.625C9.22934 60.0013 7.84712 59.7204 6.55744 59.1732C5.26776 58.6261 4.09595 57.8234 3.10906 56.8112C2.12218 55.799 1.3396 54.5972 0.806106 53.2744C0.272615 51.9517 -0.00131071 50.534 4.71519e-06 49.1026V10.8974C-0.00131071 9.46599 0.272615 8.04832 0.806106 6.72558C1.3396 5.40283 2.12218 4.20097 3.10906 3.18878C4.09595 2.17659 5.26776 1.37394 6.55744 0.826775C7.84712 0.279605 9.22934 -0.00134432 10.625 4.83609e-06V4.83609e-06Z" fill="#000B1D"/>
<path d="M50.098 20.6932C50.0977 19.9335 49.9352 19.2622 49.6066 18.6862C49.2839 18.1195 48.8005 17.6446 48.1522 17.2692C42.8004 14.1833 37.4435 11.107 32.0935 8.01797C30.6512 7.18529 29.2528 7.2158 27.8211 8.06044C25.691 9.31654 15.026 15.4267 11.848 17.2675C10.5392 18.0253 9.90238 19.1848 9.90207 20.6918C9.90002 26.8976 9.90207 33.1034 9.90002 39.3092C9.90002 40.0522 10.0559 40.7106 10.37 41.278C10.6929 41.8616 11.183 42.3496 11.8463 42.7335C15.0245 44.5742 25.6908 50.6839 27.8205 51.9405C29.2528 52.7856 30.6512 52.8158 32.094 51.983C37.4442 48.8938 42.8014 45.8174 48.1539 42.7316C48.8172 42.3478 49.3073 41.8596 49.6302 41.2764C49.9438 40.7089 50.1 40.0506 50.1 39.3074C50.1 39.3074 50.1 26.8991 50.098 20.6932Z" fill="#A179DC"/>
<path d="M30.0615 29.9399L10.37 41.2779C10.6929 41.8616 11.183 42.3495 11.8463 42.7334C15.0245 44.5742 25.6908 50.6839 27.8205 51.9405C29.2527 52.7856 30.6512 52.8158 32.094 51.9829C37.4442 48.8938 42.8014 45.8174 48.1539 42.7316C48.8172 42.3478 49.3073 41.8595 49.6302 41.2763L30.0615 29.9399Z" fill="#280068"/>
<path d="M50.098 20.6933C50.0977 19.9336 49.9352 19.2623 49.6066 18.6863L30.0615 29.9402L49.6302 41.2765C49.9438 40.709 50.0997 40.0507 50.1 39.3075C50.1 39.3075 50.1 26.8992 50.098 20.6933" fill="#390091"/>
<path d="M41.6552 25.7017V27.821H43.7745V25.7017H44.8342V27.821H46.9535V28.8806H44.8342V30.9998H46.9535V32.0594H44.8342V34.1787H43.7745V32.0594H41.6552V34.1787H40.5956V32.0594H38.4764V30.9998H40.5956V28.8806H38.4764V27.821H40.5956V25.7017H41.6552ZM43.7745 28.8805H41.6552V30.9998H43.7745V28.8805Z" fill="white"/>
<path d="M30.1048 15.0583C35.6325 15.0583 40.4586 18.0603 43.0436 22.5225L43.0184 22.4796L36.5146 26.2243C35.2333 24.0548 32.8844 22.5906 30.1895 22.5604L30.1046 22.56C25.9954 22.56 22.6641 25.8913 22.6641 30.0005C22.6627 31.2956 23.0011 32.5685 23.6454 33.692C24.9279 35.931 27.339 37.4411 30.1048 37.4411C32.8877 37.4411 35.3124 35.9118 36.5883 33.6489L36.5573 33.7032L43.0513 37.4652C40.4946 41.8897 35.7346 44.8824 30.2712 44.9421L30.1048 44.943C24.5596 44.943 19.7198 41.9224 17.1412 37.4366C15.8825 35.2467 15.1622 32.7079 15.1622 30.0005C15.1622 21.7482 21.852 15.0581 30.1046 15.0581L30.1048 15.0583Z" fill="white"/>
</g>
<defs>
<clipPath id="clip0_164_125">
<rect width="60" height="60" fill="white"/>
</clipPath>
</defs>
</svg>
