<svg width="56" height="78" viewBox="0 0 56 78" fill="none" xmlns="http://www.w3.org/2000/svg">
<path d="M27.9658 78L5.09644 71.7351L0 15.3289H56L50.8983 71.7264L27.9658 78V78Z" fill="#264DE4"/>
<path d="M46.5306 68.1351L50.8902 19.9407H28V73.2045L46.5306 68.1351V68.1351Z" fill="#2965F1"/>
<path d="M11.6833 40.861L12.3115 47.779H27.9999V40.861H11.6833ZM10.4207 26.8589L11.0579 33.7769H27.9999V26.8589H10.4207V26.8589ZM27.9999 58.8278L27.9692 58.8358L20.1616 56.7555L19.6624 51.2381H12.6248L13.6069 62.1004L27.9677 66.0341L27.9999 66.0255V58.8278Z" fill="#EBEBEB"/>
<path d="M13.1793 0H21.6701V3.50394H16.7302V7.00789H21.6705V10.5116H13.1793V0ZM23.3685 0H31.8595V3.04689H26.9193V3.65622H31.8595V10.6641H23.3687V7.46451H28.3088V6.85517H23.3682V0H23.3685ZM33.5578 0H42.0488V3.04689H37.1087V3.65622H42.0488V10.6641H33.5578V7.46451H38.498V6.85517H33.558V0H33.5578Z" fill="white"/>
<path d="M44.2716 40.861L45.5371 26.8589H27.9756V33.7769H37.8541L37.2162 40.861H27.9756V47.779H36.6084L35.7944 56.7512L27.9753 58.8337V66.0309L42.3475 62.1004L42.4529 60.9316L44.1006 42.7187L44.2716 40.861V40.861Z" fill="white"/>
</svg>
