<svg width="48" height="40" viewBox="0 0 48 40" fill="none" xmlns="http://www.w3.org/2000/svg">
<g clip-path="url(#clip0_176_103)" filter="url(#filter0_d_176_103)">
<path d="M7 32C6.2 32 5.5 31.7 4.9 31.1C4.3 30.5 4 29.8 4 29V3C4 2.2 4.3 1.5 4.9 0.9C5.5 0.3 6.2 0 7 0H41C41.8 0 42.5 0.3 43.1 0.9C43.7 1.5 44 2.2 44 3V29C44 29.8 43.7 30.5 43.1 31.1C42.5 31.7 41.8 32 41 32H7ZM24 16.9L7 5.75V29H41V5.75L24 16.9ZM24 13.9L40.8 3H7.25L24 13.9ZM7 5.75V3V29V5.75Z" fill="white"/>
</g>
<defs>
<filter id="filter0_d_176_103" x="0" y="0" width="48" height="40" filterUnits="userSpaceOnUse" color-interpolation-filters="sRGB">
<feFlood flood-opacity="0" result="BackgroundImageFix"/>
<feColorMatrix in="SourceAlpha" type="matrix" values="0 0 0 0 0 0 0 0 0 0 0 0 0 0 0 0 0 0 127 0" result="hardAlpha"/>
<feOffset dy="4"/>
<feGaussianBlur stdDeviation="2"/>
<feComposite in2="hardAlpha" operator="out"/>
<feColorMatrix type="matrix" values="0 0 0 0 0 0 0 0 0 0 0 0 0 0 0 0 0 0 0.25 0"/>
<feBlend mode="normal" in2="BackgroundImageFix" result="effect1_dropShadow_176_103"/>
<feBlend mode="normal" in="SourceGraphic" in2="effect1_dropShadow_176_103" result="shape"/>
</filter>
<clipPath id="clip0_176_103">
<rect width="40" height="32" fill="white" transform="translate(4)"/>
</clipPath>
</defs>
</svg>
