<svg width="60" height="60" viewBox="0 0 60 60" fill="none" xmlns="http://www.w3.org/2000/svg">
<g clip-path="url(#clip0_164_102)">
<path d="M10.625 4.83609e-06H49.375C50.7707 -0.00134432 52.1529 0.279605 53.4426 0.826775C54.7322 1.37394 55.9041 2.17659 56.8909 3.18878C57.8778 4.20097 58.6604 5.40283 59.1939 6.72558C59.7274 8.04832 60.0013 9.46599 60 10.8974V49.1026C60.0013 50.534 59.7274 51.9517 59.1939 53.2744C58.6604 54.5972 57.8778 55.799 56.8909 56.8112C55.9041 57.8234 54.7322 58.6261 53.4426 59.1732C52.1529 59.7204 50.7707 60.0013 49.375 60H10.625C9.22934 60.0013 7.84712 59.7204 6.55744 59.1732C5.26776 58.6261 4.09595 57.8234 3.10906 56.8112C2.12218 55.799 1.3396 54.5972 0.806106 53.2744C0.272615 51.9517 -0.00131071 50.534 4.71519e-06 49.1026V10.8974C-0.00131071 9.46599 0.272615 8.04832 0.806106 6.72558C1.3396 5.40283 2.12218 4.20097 3.10906 3.18878C4.09595 2.17659 5.26776 1.37394 6.55744 0.826775C7.84712 0.279605 9.22934 -0.00134432 10.625 4.83609e-06V4.83609e-06Z" fill="#000B1D"/>
<path d="M24.2501 48.3C27.7019 48.3 30.5001 45.5018 30.5001 42.05V35.8H24.2501C20.7983 35.8 18.0001 38.5983 18.0001 42.05C18.0001 45.5018 20.7983 48.3 24.2501 48.3Z" fill="#0ACF83"/>
<path d="M18.0001 29.55C18.0001 26.0983 20.7983 23.3 24.2501 23.3H30.5001V35.8001H24.2501C20.7983 35.8001 18.0001 33.0018 18.0001 29.55Z" fill="#A259FF"/>
<path d="M18.0001 17.05C18.0001 13.5983 20.7983 10.8 24.2501 10.8H30.5001V23.3001H24.2501C20.7983 23.3001 18.0001 20.5018 18.0001 17.05Z" fill="#F24E1E"/>
<path d="M30.5001 10.8H36.7501C40.2019 10.8 43.0001 13.5983 43.0001 17.05C43.0001 20.5018 40.2019 23.3001 36.7501 23.3001H30.5001V10.8Z" fill="#FF7262"/>
<path d="M43.0001 29.55C43.0001 33.0018 40.2019 35.8001 36.7501 35.8001C33.2983 35.8001 30.5001 33.0018 30.5001 29.55C30.5001 26.0983 33.2983 23.3 36.7501 23.3C40.2019 23.3 43.0001 26.0983 43.0001 29.55Z" fill="#1ABCFE"/>
</g>
<defs>
<clipPath id="clip0_164_102">
<rect width="60" height="60" fill="white"/>
</clipPath>
</defs>
</svg>
