<svg width="48" height="48" viewBox="0 0 48 48" fill="none" xmlns="http://www.w3.org/2000/svg">
<g filter="url(#filter0_d_177_163)">
<rect x="4" width="40" height="40" rx="20" fill="black"/>
<path fill-rule="evenodd" clip-rule="evenodd" d="M23.9954 7C20.7458 7.00169 17.6027 8.15263 15.1282 10.247C12.6537 12.3414 11.0092 15.2427 10.4886 18.4321C9.96804 21.6215 10.6054 24.8911 12.2867 27.6561C13.9681 30.4211 16.5837 32.5013 19.666 33.5248C20.346 33.651 20.6022 33.2295 20.6022 32.8712C20.6022 32.5128 20.5886 31.4738 20.584 30.3379C16.776 31.1606 15.9713 28.731 15.9713 28.731C15.3503 27.1533 14.4527 26.7386 14.4527 26.7386C13.2105 25.8957 14.5456 25.9115 14.5456 25.9115C15.9215 26.0084 16.6445 27.3156 16.6445 27.3156C17.864 29.3958 19.8473 28.7941 20.6271 28.4425C20.7495 27.5613 21.1054 26.9618 21.4975 26.6214C18.4556 26.2789 15.2596 25.1114 15.2596 19.8961C15.2407 18.5436 15.7455 17.2356 16.6695 16.2428C16.5289 15.9002 16.0597 14.5164 16.8032 12.6367C16.8032 12.6367 17.9524 12.2716 20.5682 14.0318C22.8118 13.4217 25.179 13.4217 27.4226 14.0318C30.0361 12.2716 31.183 12.6367 31.183 12.6367C31.9287 14.5119 31.4595 15.8957 31.319 16.2428C32.2459 17.2358 32.7517 18.546 32.7311 19.9007C32.7311 25.1272 29.5283 26.2789 26.4819 26.6147C26.9715 27.0384 27.409 27.8655 27.409 29.1367C27.409 30.9577 27.3931 32.4227 27.3931 32.8712C27.3931 33.234 27.6402 33.6577 28.3338 33.5248C31.4164 32.5012 34.0324 30.4206 35.7137 27.6551C37.395 24.8896 38.032 21.6196 37.5108 18.4299C36.9897 15.2402 35.3443 12.3389 32.869 10.2449C30.3937 8.15081 27.2499 7.00062 23.9999 7H23.9954Z" fill="white"/>
<path d="M15.4905 26.5425C15.461 26.6101 15.3522 26.6304 15.2638 26.5831C15.1754 26.5358 15.1097 26.4479 15.1414 26.378C15.1731 26.3081 15.2797 26.2901 15.3681 26.3374C15.4565 26.3847 15.5245 26.4749 15.4905 26.5425Z" fill="white"/>
<path d="M16.0457 27.1577C15.9988 27.1812 15.9451 27.1878 15.8938 27.1763C15.8425 27.1648 15.7969 27.1359 15.7647 27.0946C15.6763 26.9999 15.6581 26.8692 15.7261 26.8106C15.7941 26.752 15.9165 26.7791 16.0049 26.8737C16.0933 26.9684 16.1137 27.0991 16.0457 27.1577Z" fill="white"/>
<path d="M16.5853 27.9399C16.5015 27.9985 16.3587 27.9399 16.2793 27.8227C16.2574 27.8017 16.2399 27.7764 16.228 27.7486C16.2161 27.7207 16.21 27.6907 16.21 27.6604C16.21 27.6301 16.2161 27.6001 16.228 27.5722C16.2399 27.5444 16.2574 27.5192 16.2793 27.4981C16.3632 27.4418 16.506 27.4981 16.5853 27.6131C16.6647 27.728 16.6669 27.8813 16.5853 27.9399Z" fill="white"/>
<path d="M17.3175 28.697C17.2427 28.7804 17.0909 28.7579 16.9662 28.6452C16.8415 28.5325 16.8121 28.3793 16.8869 28.2981C16.9617 28.217 17.1135 28.2395 17.2427 28.35C17.3719 28.4604 17.3969 28.6159 17.3175 28.697Z" fill="white"/>
<path d="M18.3443 29.1391C18.3103 29.245 18.1561 29.2923 18.002 29.2473C17.8479 29.2022 17.7459 29.076 17.7753 28.9678C17.8048 28.8596 17.9612 28.81 18.1176 28.8596C18.274 28.9092 18.3737 29.0286 18.3443 29.1391Z" fill="white"/>
<path d="M19.464 29.2155C19.464 29.3259 19.3371 29.4206 19.1739 29.4228C19.0107 29.4251 18.877 29.3349 18.877 29.2245C18.877 29.114 19.0039 29.0194 19.1671 29.0171C19.3303 29.0149 19.464 29.1028 19.464 29.2155Z" fill="white"/>
<path d="M20.5067 29.0418C20.5271 29.1523 20.4138 29.2672 20.2506 29.2942C20.0874 29.3213 19.9446 29.2559 19.9242 29.1477C19.9038 29.0396 20.0216 28.9224 20.1803 28.8931C20.339 28.8638 20.4863 28.9314 20.5067 29.0418Z" fill="white"/>
</g>
<defs>
<filter id="filter0_d_177_163" x="0" y="0" width="48" height="48" filterUnits="userSpaceOnUse" color-interpolation-filters="sRGB">
<feFlood flood-opacity="0" result="BackgroundImageFix"/>
<feColorMatrix in="SourceAlpha" type="matrix" values="0 0 0 0 0 0 0 0 0 0 0 0 0 0 0 0 0 0 127 0" result="hardAlpha"/>
<feOffset dy="4"/>
<feGaussianBlur stdDeviation="2"/>
<feComposite in2="hardAlpha" operator="out"/>
<feColorMatrix type="matrix" values="0 0 0 0 0 0 0 0 0 0 0 0 0 0 0 0 0 0 0.25 0"/>
<feBlend mode="normal" in2="BackgroundImageFix" result="effect1_dropShadow_177_163"/>
<feBlend mode="normal" in="SourceGraphic" in2="effect1_dropShadow_177_163" result="shape"/>
</filter>
</defs>
</svg>
