<svg width="56" height="78" viewBox="0 0 56 78" fill="none" xmlns="http://www.w3.org/2000/svg">
<path d="M55.5407 15.2793L50.5227 71.4942L27.9663 77.7474L5.47218 71.5028L0.459351 15.2793H55.5407Z" fill="#E44D26"/>
<path d="M28 72.9675L46.2267 67.9145L50.5147 19.8762H28V72.9675Z" fill="#F16529"/>
<path d="M18.2451 33.6676H28V26.772H10.7091L10.8741 28.6219L12.569 47.6243H28V40.7287H18.8753L18.2451 33.6676V33.6676ZM19.7992 51.0722H12.8771L13.8431 61.8994L27.9683 65.8203L28 65.8117V58.6374L27.9698 58.6454L20.2902 56.5717L19.7992 51.0722V51.0722Z" fill="#EBEBEB"/>
<path d="M5.58398 0H9.08824V3.46215H12.2939V0H15.7984V10.4843H12.2941V6.97353H9.08845V10.4843H5.5842V0H5.58398ZM20.4064 3.47683H17.3218V0H26.9977V3.47683H23.9113V10.4843H20.407V3.47683H20.4068H20.4064ZM28.5333 0H32.1872L34.4348 3.68389L36.6803 0H40.3357V10.4843H36.8457V5.28769L34.4348 9.01541H34.3744L31.962 5.28769V10.4843H28.5333V0ZM42.0796 0H45.585V7.01887H50.5129V10.4843H42.0794V0H42.0796Z" fill="white"/>
<path d="M27.9763 47.6243H36.4675L35.6669 56.5674L27.9761 58.6432V65.8171L42.1125 61.8994L42.2161 60.7343L43.8368 42.5804L44.005 40.7287H27.9763V47.6243ZM27.9763 33.6507V33.6676H44.6324L44.7706 32.1177L45.085 28.6219L45.2497 26.772H27.9763V33.6509V33.6507Z" fill="white"/>
</svg>
