<svg width="48" height="48" viewBox="0 0 48 48" fill="none" xmlns="http://www.w3.org/2000/svg">
<g clip-path="url(#clip0_177_136)" filter="url(#filter0_d_177_136)">
<path d="M24 3.6046C29.3434 3.6046 29.9706 3.62842 32.0826 3.7237C34.0358 3.81104 35.0917 4.13656 35.7984 4.41445C36.7352 4.77967 37.4022 5.20842 38.1009 5.90711C38.7995 6.6058 39.2362 7.27273 39.5935 8.20961C39.8635 8.91624 40.1969 9.97221 40.2843 11.9254C40.3795 14.0373 40.4034 14.6645 40.4034 20.0079C40.4034 25.3513 40.3795 25.9786 40.2843 28.0905C40.1969 30.0437 39.8714 31.0996 39.5935 31.8063C39.2283 32.7432 38.7995 33.4101 38.1009 34.1088C37.4022 34.8075 36.7352 35.2441 35.7984 35.6014C35.0917 35.8714 34.0358 36.2048 32.0826 36.2922C29.9706 36.3875 29.3434 36.4113 24 36.4113C18.6566 36.4113 18.0294 36.3875 15.9174 36.2922C13.9643 36.2048 12.9083 35.8793 12.2017 35.6014C11.2648 35.2362 10.5979 34.8075 9.89917 34.1088C9.20048 33.4101 8.7638 32.7432 8.40651 31.8063C8.13657 31.0996 7.8031 30.0437 7.71576 28.0905C7.62049 25.9786 7.59667 25.3513 7.59667 20.0079C7.59667 14.6645 7.62049 14.0373 7.71576 11.9254C7.8031 9.97221 8.12863 8.91624 8.40651 8.20961C8.77174 7.27273 9.20048 6.6058 9.89917 5.90711C10.5979 5.20842 11.2648 4.77173 12.2017 4.41445C12.9083 4.1445 13.9643 3.81104 15.9174 3.7237C18.0294 3.62048 18.6646 3.6046 24 3.6046ZM24 0C18.5693 0 17.8865 0.023819 15.7507 0.119095C13.6229 0.214371 12.1699 0.555776 10.8996 1.04803C9.58158 1.55617 8.47003 2.24692 7.35848 3.35848C6.24692 4.47003 5.56411 5.58952 5.04804 6.89956C4.55578 8.16991 4.21437 9.62287 4.11909 11.7586C4.02382 13.8865 4 14.5693 4 20C4 25.4307 4.02382 26.1135 4.11909 28.2493C4.21437 30.3771 4.55578 31.8301 5.04804 33.1084C5.55617 34.4264 6.24692 35.5379 7.35848 36.6495C8.47003 37.761 9.58952 38.4438 10.8996 38.9599C12.1699 39.4522 13.6229 39.7936 15.7586 39.8888C17.8944 39.9841 18.5693 40.0079 24.008 40.0079C29.4466 40.0079 30.1215 39.9841 32.2573 39.8888C34.3851 39.7936 35.8381 39.4522 37.1163 38.9599C38.4343 38.4518 39.5459 37.761 40.6574 36.6495C41.769 35.5379 42.4518 34.4184 42.9679 33.1084C43.4601 31.838 43.8015 30.3851 43.8968 28.2493C43.9921 26.1135 44.0159 25.4387 44.0159 20C44.0159 14.5613 43.9921 13.8865 43.8968 11.7507C43.8015 9.62287 43.4601 8.16991 42.9679 6.89162C42.4597 5.57364 41.769 4.46209 40.6574 3.35054C39.5459 2.23898 38.4264 1.55617 37.1163 1.0401C35.846 0.547836 34.393 0.206431 32.2573 0.111155C30.1136 0.023819 29.4307 0 24 0Z" fill="white"/>
<path d="M24 9.73389C18.3311 9.73389 13.7261 14.3309 13.7261 20.0078C13.7261 25.6847 18.3231 30.2817 24 30.2817C29.6768 30.2817 34.2739 25.6847 34.2739 20.0078C34.2739 14.3309 29.6768 9.73389 24 9.73389ZM24 26.6692C20.316 26.6692 17.3307 23.6839 17.3307 19.9999C17.3307 16.3159 20.316 13.3306 24 13.3306C27.684 13.3306 30.6693 16.3159 30.6693 19.9999C30.6693 23.6839 27.684 26.6692 24 26.6692Z" fill="white"/>
<path d="M34.6788 11.7189C36.003 11.7189 37.0766 10.6454 37.0766 9.32112C37.0766 7.99686 36.003 6.92334 34.6788 6.92334C33.3545 6.92334 32.281 7.99686 32.281 9.32112C32.281 10.6454 33.3545 11.7189 34.6788 11.7189Z" fill="white"/>
</g>
<defs>
<filter id="filter0_d_177_136" x="0" y="0" width="48" height="48" filterUnits="userSpaceOnUse" color-interpolation-filters="sRGB">
<feFlood flood-opacity="0" result="BackgroundImageFix"/>
<feColorMatrix in="SourceAlpha" type="matrix" values="0 0 0 0 0 0 0 0 0 0 0 0 0 0 0 0 0 0 127 0" result="hardAlpha"/>
<feOffset dy="4"/>
<feGaussianBlur stdDeviation="2"/>
<feComposite in2="hardAlpha" operator="out"/>
<feColorMatrix type="matrix" values="0 0 0 0 0 0 0 0 0 0 0 0 0 0 0 0 0 0 0.25 0"/>
<feBlend mode="normal" in2="BackgroundImageFix" result="effect1_dropShadow_177_136"/>
<feBlend mode="normal" in="SourceGraphic" in2="effect1_dropShadow_177_136" result="shape"/>
</filter>
<clipPath id="clip0_177_136">
<rect width="40" height="40" fill="white" transform="translate(4)"/>
</clipPath>
</defs>
</svg>
