<svg width="60" height="60" viewBox="0 0 60 60" fill="none" xmlns="http://www.w3.org/2000/svg">
<g clip-path="url(#clip0_164_95)">
<path d="M10.625 4.83609e-06H49.375C50.7707 -0.00134432 52.1529 0.279605 53.4426 0.826775C54.7322 1.37394 55.9041 2.17659 56.8909 3.18878C57.8778 4.20097 58.6604 5.40283 59.1939 6.72558C59.7274 8.04832 60.0013 9.46599 60 10.8974V49.1026C60.0013 50.534 59.7274 51.9517 59.1939 53.2744C58.6604 54.5972 57.8778 55.799 56.8909 56.8112C55.9041 57.8234 54.7322 58.6261 53.4426 59.1732C52.1529 59.7204 50.7707 60.0013 49.375 60H10.625C9.22934 60.0013 7.84711 59.7204 6.55744 59.1732C5.26776 58.6261 4.09595 57.8234 3.10906 56.8112C2.12218 55.799 1.3396 54.5972 0.806105 53.2744C0.272615 51.9517 -0.00131071 50.534 4.71519e-06 49.1026V10.8974C-0.00131071 9.46599 0.272615 8.04832 0.806105 6.72558C1.3396 5.40283 2.12218 4.20097 3.10906 3.18878C4.09595 2.17659 5.26776 1.37394 6.55744 0.826775C7.84711 0.279605 9.22934 -0.00134432 10.625 4.83609e-06V4.83609e-06Z" fill="#F7DF1E"/>
<path d="M40.4067 46.9477C41.6153 48.921 43.1876 50.3715 45.9686 50.3715C48.3048 50.3715 49.7972 49.2039 49.7972 47.5905C49.7972 45.6572 48.2638 44.9724 45.6924 43.8477L44.2829 43.2429C40.2143 41.5096 37.5115 39.3381 37.5115 34.7477C37.5115 30.5191 40.7334 27.3 45.7686 27.3C49.3534 27.3 51.9305 28.5477 53.7876 31.8143L49.3972 34.6334C48.4305 32.9 47.3876 32.2172 45.7686 32.2172C44.1172 32.2172 43.0705 33.2648 43.0705 34.6334C43.0705 36.3248 44.1181 37.0096 46.5372 38.0572L47.9467 38.661C52.7372 40.7153 55.4419 42.8096 55.4419 47.5181C55.4419 52.5943 51.4543 55.3753 46.0991 55.3753C40.8629 55.3753 37.48 52.88 35.8248 49.6096L40.4067 46.9477ZM20.4895 47.4362C21.3753 49.0077 22.181 50.3362 24.1181 50.3362C25.9705 50.3362 27.1391 49.6115 27.1391 46.7934V27.622H32.7772V46.8696C32.7772 52.7077 29.3543 55.3648 24.3581 55.3648C19.8438 55.3648 17.2295 53.0286 15.9 50.2148L20.4895 47.4362Z" fill="black"/>
</g>
<defs>
<clipPath id="clip0_164_95">
<rect width="60" height="60" fill="white"/>
</clipPath>
</defs>
</svg>
