<svg width="48" height="48" viewBox="0 0 48 48" fill="none" xmlns="http://www.w3.org/2000/svg">
<g filter="url(#filter0_d_176_119)">
<g clip-path="url(#clip0_176_119)">
<rect x="4" width="40" height="40" rx="4" fill="white"/>
<path d="M41.0472 0H6.95278C6.16965 0 5.4186 0.311096 4.86485 0.864849C4.3111 1.4186 4 2.16965 4 2.95278V37.0472C4 37.8303 4.3111 38.5814 4.86485 39.1352C5.4186 39.6889 6.16965 40 6.95278 40H41.0472C41.8303 40 42.5814 39.6889 43.1352 39.1352C43.6889 38.5814 44 37.8303 44 37.0472V2.95278C44 2.16965 43.6889 1.4186 43.1352 0.864849C42.5814 0.311096 41.8303 0 41.0472 0ZM15.9222 34.075H9.90833V14.9722H15.9222V34.075ZM12.9111 12.325C12.2289 12.3212 11.5632 12.1153 10.9979 11.7335C10.4326 11.3516 9.99307 10.8109 9.7348 10.1795C9.47652 9.54808 9.41108 8.85432 9.54672 8.18576C9.68236 7.5172 10.013 6.90379 10.4969 6.42297C10.9808 5.94214 11.5964 5.61544 12.2658 5.4841C12.9352 5.35276 13.6285 5.42266 14.2583 5.68498C14.888 5.9473 15.4259 6.39028 15.8041 6.95802C16.1823 7.52576 16.3839 8.19282 16.3833 8.875C16.3898 9.33172 16.3042 9.78506 16.1317 10.208C15.9592 10.6309 15.7033 11.0148 15.3793 11.3368C15.0553 11.6587 14.6697 11.9121 14.2457 12.0819C13.8217 12.2517 13.3678 12.3344 12.9111 12.325ZM38.0889 34.0917H32.0778V23.6556C32.0778 20.5778 30.7694 19.6278 29.0806 19.6278C27.2972 19.6278 25.5472 20.9722 25.5472 23.7333V34.0917H19.5333V14.9861H25.3167V17.6333H25.3944C25.975 16.4583 28.0083 14.45 31.1111 14.45C34.4667 14.45 38.0917 16.4417 38.0917 22.275L38.0889 34.0917Z" fill="#0A66C2"/>
</g>
</g>
<defs>
<filter id="filter0_d_176_119" x="0" y="0" width="48" height="48" filterUnits="userSpaceOnUse" color-interpolation-filters="sRGB">
<feFlood flood-opacity="0" result="BackgroundImageFix"/>
<feColorMatrix in="SourceAlpha" type="matrix" values="0 0 0 0 0 0 0 0 0 0 0 0 0 0 0 0 0 0 127 0" result="hardAlpha"/>
<feOffset dy="4"/>
<feGaussianBlur stdDeviation="2"/>
<feComposite in2="hardAlpha" operator="out"/>
<feColorMatrix type="matrix" values="0 0 0 0 0 0 0 0 0 0 0 0 0 0 0 0 0 0 0.25 0"/>
<feBlend mode="normal" in2="BackgroundImageFix" result="effect1_dropShadow_176_119"/>
<feBlend mode="normal" in="SourceGraphic" in2="effect1_dropShadow_176_119" result="shape"/>
</filter>
<clipPath id="clip0_176_119">
<rect x="4" width="40" height="40" rx="4" fill="white"/>
</clipPath>
</defs>
</svg>
