<svg width="201" height="150" viewBox="0 0 201 150" fill="none" xmlns="http://www.w3.org/2000/svg">
<rect x="0.241699" y="30" width="127.879" height="120" fill="#FF0000"/>
<rect x="0.241699" width="200.656" height="21" fill="#299BBF"/>
<rect x="135.398" y="30" width="65.4991" height="56" fill="#F2C94C"/>
<rect x="135.398" y="94" width="65.4991" height="56" fill="#F2C94C"/>
<path d="M7.32574 14V7.7H8.49574V13.01H11.7897V14H7.32574ZM15.1265 14.063C14.6345 14.063 14.1965 13.958 13.8125 13.748C13.4285 13.532 13.1255 13.238 12.9035 12.866C12.6815 12.494 12.5705 12.071 12.5705 11.597C12.5705 11.117 12.6815 10.694 12.9035 10.328C13.1255 9.956 13.4285 9.665 13.8125 9.455C14.1965 9.245 14.6345 9.14 15.1265 9.14C15.6245 9.14 16.0655 9.245 16.4495 9.455C16.8395 9.665 17.1425 9.953 17.3585 10.319C17.5805 10.685 17.6915 11.111 17.6915 11.597C17.6915 12.071 17.5805 12.494 17.3585 12.866C17.1425 13.238 16.8395 13.532 16.4495 13.748C16.0655 13.958 15.6245 14.063 15.1265 14.063ZM15.1265 13.1C15.4025 13.1 15.6485 13.04 15.8645 12.92C16.0805 12.8 16.2485 12.626 16.3685 12.398C16.4945 12.17 16.5575 11.903 16.5575 11.597C16.5575 11.285 16.4945 11.018 16.3685 10.796C16.2485 10.568 16.0805 10.394 15.8645 10.274C15.6485 10.154 15.4055 10.094 15.1355 10.094C14.8595 10.094 14.6135 10.154 14.3975 10.274C14.1875 10.394 14.0195 10.568 13.8935 10.796C13.7675 11.018 13.7045 11.285 13.7045 11.597C13.7045 11.903 13.7675 12.17 13.8935 12.398C14.0195 12.626 14.1875 12.8 14.3975 12.92C14.6135 13.04 14.8565 13.1 15.1265 13.1ZM21.3503 15.809C20.9063 15.809 20.4713 15.749 20.0453 15.629C19.6253 15.515 19.2803 15.347 19.0103 15.125L19.5143 14.279C19.7243 14.453 19.9883 14.591 20.3063 14.693C20.6303 14.801 20.9573 14.855 21.2873 14.855C21.8153 14.855 22.2023 14.732 22.4483 14.486C22.6943 14.246 22.8173 13.883 22.8173 13.397V12.542L22.9073 11.453L22.8713 10.364V9.194H23.9423V13.271C23.9423 14.141 23.7203 14.78 23.2763 15.188C22.8323 15.602 22.1903 15.809 21.3503 15.809ZM21.2063 13.784C20.7503 13.784 20.3363 13.688 19.9643 13.496C19.5983 13.298 19.3073 13.025 19.0913 12.677C18.8813 12.329 18.7763 11.921 18.7763 11.453C18.7763 10.991 18.8813 10.586 19.0913 10.238C19.3073 9.89 19.5983 9.62 19.9643 9.428C20.3363 9.236 20.7503 9.14 21.2063 9.14C21.6143 9.14 21.9803 9.221 22.3043 9.383C22.6283 9.545 22.8863 9.797 23.0783 10.139C23.2763 10.481 23.3753 10.919 23.3753 11.453C23.3753 11.987 23.2763 12.428 23.0783 12.776C22.8863 13.118 22.6283 13.373 22.3043 13.541C21.9803 13.703 21.6143 13.784 21.2063 13.784ZM21.3773 12.83C21.6593 12.83 21.9113 12.773 22.1333 12.659C22.3553 12.539 22.5263 12.377 22.6463 12.173C22.7723 11.963 22.8353 11.723 22.8353 11.453C22.8353 11.183 22.7723 10.946 22.6463 10.742C22.5263 10.532 22.3553 10.373 22.1333 10.265C21.9113 10.151 21.6593 10.094 21.3773 10.094C21.0953 10.094 20.8403 10.151 20.6123 10.265C20.3903 10.373 20.2163 10.532 20.0903 10.742C19.9703 10.946 19.9103 11.183 19.9103 11.453C19.9103 11.723 19.9703 11.963 20.0903 12.173C20.2163 12.377 20.3903 12.539 20.6123 12.659C20.8403 12.773 21.0953 12.83 21.3773 12.83ZM27.9863 14.063C27.4943 14.063 27.0563 13.958 26.6723 13.748C26.2883 13.532 25.9853 13.238 25.7633 12.866C25.5413 12.494 25.4303 12.071 25.4303 11.597C25.4303 11.117 25.5413 10.694 25.7633 10.328C25.9853 9.956 26.2883 9.665 26.6723 9.455C27.0563 9.245 27.4943 9.14 27.9863 9.14C28.4843 9.14 28.9253 9.245 29.3093 9.455C29.6993 9.665 30.0023 9.953 30.2183 10.319C30.4403 10.685 30.5513 11.111 30.5513 11.597C30.5513 12.071 30.4403 12.494 30.2183 12.866C30.0023 13.238 29.6993 13.532 29.3093 13.748C28.9253 13.958 28.4843 14.063 27.9863 14.063ZM27.9863 13.1C28.2623 13.1 28.5083 13.04 28.7243 12.92C28.9403 12.8 29.1083 12.626 29.2283 12.398C29.3543 12.17 29.4173 11.903 29.4173 11.597C29.4173 11.285 29.3543 11.018 29.2283 10.796C29.1083 10.568 28.9403 10.394 28.7243 10.274C28.5083 10.154 28.2653 10.094 27.9953 10.094C27.7193 10.094 27.4733 10.154 27.2573 10.274C27.0473 10.394 26.8793 10.568 26.7533 10.796C26.6273 11.018 26.5643 11.285 26.5643 11.597C26.5643 11.903 26.6273 12.17 26.7533 12.398C26.8793 12.626 27.0473 12.8 27.2573 12.92C27.4733 13.04 27.7163 13.1 27.9863 13.1Z" fill="white"/>
<path d="M9.27874 44.09C8.78674 44.09 8.31574 44.021 7.86574 43.883C7.41574 43.739 7.05874 43.556 6.79474 43.334L7.19974 42.425C7.45174 42.623 7.76374 42.788 8.13574 42.92C8.50774 43.052 8.88874 43.118 9.27874 43.118C9.60874 43.118 9.87574 43.082 10.0797 43.01C10.2837 42.938 10.4337 42.842 10.5297 42.722C10.6257 42.596 10.6737 42.455 10.6737 42.299C10.6737 42.107 10.6047 41.954 10.4667 41.84C10.3287 41.72 10.1487 41.627 9.92674 41.561C9.71074 41.489 9.46774 41.423 9.19774 41.363C8.93374 41.303 8.66674 41.234 8.39674 41.156C8.13274 41.072 7.88974 40.967 7.66774 40.841C7.45174 40.709 7.27474 40.535 7.13674 40.319C6.99874 40.103 6.92974 39.827 6.92974 39.491C6.92974 39.149 7.01974 38.837 7.19974 38.555C7.38574 38.267 7.66474 38.039 8.03674 37.871C8.41474 37.697 8.89174 37.61 9.46774 37.61C9.84574 37.61 10.2207 37.658 10.5927 37.754C10.9647 37.85 11.2887 37.988 11.5647 38.168L11.1957 39.077C10.9137 38.909 10.6227 38.786 10.3227 38.708C10.0227 38.624 9.73474 38.582 9.45874 38.582C9.13474 38.582 8.87074 38.621 8.66674 38.699C8.46874 38.777 8.32174 38.879 8.22574 39.005C8.13574 39.131 8.09074 39.275 8.09074 39.437C8.09074 39.629 8.15674 39.785 8.28874 39.905C8.42674 40.019 8.60374 40.109 8.81974 40.175C9.04174 40.241 9.28774 40.307 9.55774 40.373C9.82774 40.433 10.0947 40.502 10.3587 40.58C10.6287 40.658 10.8717 40.76 11.0877 40.886C11.3097 41.012 11.4867 41.183 11.6187 41.399C11.7567 41.615 11.8257 41.888 11.8257 42.218C11.8257 42.554 11.7327 42.866 11.5467 43.154C11.3667 43.436 11.0877 43.664 10.7097 43.838C10.3317 44.006 9.85474 44.09 9.27874 44.09ZM15.5419 44.063C15.0079 44.063 14.5399 43.958 14.1379 43.748C13.7419 43.532 13.4329 43.238 13.2109 42.866C12.9949 42.494 12.8869 42.071 12.8869 41.597C12.8869 41.117 12.9919 40.694 13.2019 40.328C13.4179 39.956 13.7119 39.665 14.0839 39.455C14.4619 39.245 14.8909 39.14 15.3709 39.14C15.8389 39.14 16.2559 39.242 16.6219 39.446C16.9879 39.65 17.2759 39.938 17.4859 40.31C17.6959 40.682 17.8009 41.12 17.8009 41.624C17.8009 41.672 17.7979 41.726 17.7919 41.786C17.7919 41.846 17.7889 41.903 17.7829 41.957H13.7779V41.21H17.1889L16.7479 41.444C16.7539 41.168 16.6969 40.925 16.5769 40.715C16.4569 40.505 16.2919 40.34 16.0819 40.22C15.8779 40.1 15.6409 40.04 15.3709 40.04C15.0949 40.04 14.8519 40.1 14.6419 40.22C14.4379 40.34 14.2759 40.508 14.1559 40.724C14.0419 40.934 13.9849 41.183 13.9849 41.471V41.651C13.9849 41.939 14.0509 42.194 14.1829 42.416C14.3149 42.638 14.5009 42.809 14.7409 42.929C14.9809 43.049 15.2569 43.109 15.5689 43.109C15.8389 43.109 16.0819 43.067 16.2979 42.983C16.5139 42.899 16.7059 42.767 16.8739 42.587L17.4769 43.28C17.2609 43.532 16.9879 43.727 16.6579 43.865C16.3339 43.997 15.9619 44.063 15.5419 44.063ZM21.4915 44.063C20.9875 44.063 20.5375 43.958 20.1415 43.748C19.7515 43.532 19.4455 43.238 19.2235 42.866C19.0015 42.494 18.8905 42.071 18.8905 41.597C18.8905 41.117 19.0015 40.694 19.2235 40.328C19.4455 39.956 19.7515 39.665 20.1415 39.455C20.5375 39.245 20.9875 39.14 21.4915 39.14C21.9595 39.14 22.3705 39.236 22.7245 39.428C23.0845 39.614 23.3575 39.89 23.5435 40.256L22.6795 40.76C22.5355 40.532 22.3585 40.364 22.1485 40.256C21.9445 40.148 21.7225 40.094 21.4825 40.094C21.2065 40.094 20.9575 40.154 20.7355 40.274C20.5135 40.394 20.3395 40.568 20.2135 40.796C20.0875 41.018 20.0245 41.285 20.0245 41.597C20.0245 41.909 20.0875 42.179 20.2135 42.407C20.3395 42.629 20.5135 42.8 20.7355 42.92C20.9575 43.04 21.2065 43.1 21.4825 43.1C21.7225 43.1 21.9445 43.046 22.1485 42.938C22.3585 42.83 22.5355 42.662 22.6795 42.434L23.5435 42.938C23.3575 43.298 23.0845 43.577 22.7245 43.775C22.3705 43.967 21.9595 44.063 21.4915 44.063ZM26.7915 44.063C26.2635 44.063 25.8555 43.928 25.5675 43.658C25.2795 43.382 25.1355 42.977 25.1355 42.443V38.132H26.2605V42.416C26.2605 42.644 26.3175 42.821 26.4315 42.947C26.5515 43.073 26.7165 43.136 26.9265 43.136C27.1785 43.136 27.3885 43.07 27.5565 42.938L27.8715 43.739C27.7395 43.847 27.5775 43.928 27.3855 43.982C27.1935 44.036 26.9955 44.063 26.7915 44.063ZM24.3435 40.13V39.23H27.5475V40.13H24.3435ZM29.202 44V39.194H30.327V44H29.202ZM29.769 38.402C29.559 38.402 29.385 38.336 29.247 38.204C29.115 38.072 29.049 37.913 29.049 37.727C29.049 37.535 29.115 37.376 29.247 37.25C29.385 37.118 29.559 37.052 29.769 37.052C29.979 37.052 30.15 37.115 30.282 37.241C30.42 37.361 30.489 37.514 30.489 37.7C30.489 37.898 30.423 38.066 30.291 38.204C30.159 38.336 29.985 38.402 29.769 38.402ZM34.3686 44.063C33.8766 44.063 33.4386 43.958 33.0546 43.748C32.6706 43.532 32.3676 43.238 32.1456 42.866C31.9236 42.494 31.8126 42.071 31.8126 41.597C31.8126 41.117 31.9236 40.694 32.1456 40.328C32.3676 39.956 32.6706 39.665 33.0546 39.455C33.4386 39.245 33.8766 39.14 34.3686 39.14C34.8666 39.14 35.3076 39.245 35.6916 39.455C36.0816 39.665 36.3846 39.953 36.6006 40.319C36.8226 40.685 36.9336 41.111 36.9336 41.597C36.9336 42.071 36.8226 42.494 36.6006 42.866C36.3846 43.238 36.0816 43.532 35.6916 43.748C35.3076 43.958 34.8666 44.063 34.3686 44.063ZM34.3686 43.1C34.6446 43.1 34.8906 43.04 35.1066 42.92C35.3226 42.8 35.4906 42.626 35.6106 42.398C35.7366 42.17 35.7996 41.903 35.7996 41.597C35.7996 41.285 35.7366 41.018 35.6106 40.796C35.4906 40.568 35.3226 40.394 35.1066 40.274C34.8906 40.154 34.6476 40.094 34.3776 40.094C34.1016 40.094 33.8556 40.154 33.6396 40.274C33.4296 40.394 33.2616 40.568 33.1356 40.796C33.0096 41.018 32.9466 41.285 32.9466 41.597C32.9466 41.903 33.0096 42.17 33.1356 42.398C33.2616 42.626 33.4296 42.8 33.6396 42.92C33.8556 43.04 34.0986 43.1 34.3686 43.1ZM41.1413 39.14C41.5253 39.14 41.8673 39.215 42.1673 39.365C42.4733 39.515 42.7133 39.746 42.8873 40.058C43.0613 40.364 43.1483 40.76 43.1483 41.246V44H42.0233V41.39C42.0233 40.964 41.9213 40.646 41.7173 40.436C41.5193 40.226 41.2403 40.121 40.8803 40.121C40.6163 40.121 40.3823 40.175 40.1783 40.283C39.9743 40.391 39.8153 40.553 39.7013 40.769C39.5933 40.979 39.5393 41.246 39.5393 41.57V44H38.4143V39.194H39.4853V40.49L39.2963 40.094C39.4643 39.788 39.7073 39.554 40.0253 39.392C40.3493 39.224 40.7213 39.14 41.1413 39.14Z" fill="white"/>
<path d="M168.623 41L171.458 34.7H172.61L175.454 41H174.23L171.791 35.321H172.259L169.829 41H168.623ZM169.928 39.542L170.243 38.624H173.645L173.96 39.542H169.928ZM177.993 41.063C177.591 41.063 177.204 41.012 176.832 40.91C176.466 40.802 176.175 40.673 175.959 40.523L176.391 39.668C176.607 39.806 176.865 39.92 177.165 40.01C177.465 40.1 177.765 40.145 178.065 40.145C178.419 40.145 178.674 40.097 178.83 40.001C178.992 39.905 179.073 39.776 179.073 39.614C179.073 39.482 179.019 39.383 178.911 39.317C178.803 39.245 178.662 39.191 178.488 39.155C178.314 39.119 178.119 39.086 177.903 39.056C177.693 39.026 177.48 38.987 177.264 38.939C177.054 38.885 176.862 38.81 176.688 38.714C176.514 38.612 176.373 38.477 176.265 38.309C176.157 38.141 176.103 37.919 176.103 37.643C176.103 37.337 176.19 37.073 176.364 36.851C176.538 36.623 176.781 36.449 177.093 36.329C177.411 36.203 177.786 36.14 178.218 36.14C178.542 36.14 178.869 36.176 179.199 36.248C179.529 36.32 179.802 36.422 180.018 36.554L179.586 37.409C179.358 37.271 179.127 37.178 178.893 37.13C178.665 37.076 178.437 37.049 178.209 37.049C177.867 37.049 177.612 37.1 177.444 37.202C177.282 37.304 177.201 37.433 177.201 37.589C177.201 37.733 177.255 37.841 177.363 37.913C177.471 37.985 177.612 38.042 177.786 38.084C177.96 38.126 178.152 38.162 178.362 38.192C178.578 38.216 178.791 38.255 179.001 38.309C179.211 38.363 179.403 38.438 179.577 38.534C179.757 38.624 179.901 38.753 180.009 38.921C180.117 39.089 180.171 39.308 180.171 39.578C180.171 39.878 180.081 40.139 179.901 40.361C179.727 40.583 179.478 40.757 179.154 40.883C178.83 41.003 178.443 41.063 177.993 41.063ZM181.545 41V36.194H182.67V41H181.545ZM182.112 35.402C181.902 35.402 181.728 35.336 181.59 35.204C181.458 35.072 181.392 34.913 181.392 34.727C181.392 34.535 181.458 34.376 181.59 34.25C181.728 34.118 181.902 34.052 182.112 34.052C182.322 34.052 182.493 34.115 182.625 34.241C182.763 34.361 182.832 34.514 182.832 34.7C182.832 34.898 182.766 35.066 182.634 35.204C182.502 35.336 182.328 35.402 182.112 35.402ZM186.586 41.063C186.124 41.063 185.707 40.961 185.335 40.757C184.969 40.547 184.681 40.259 184.471 39.893C184.261 39.527 184.156 39.095 184.156 38.597C184.156 38.099 184.261 37.667 184.471 37.301C184.681 36.935 184.969 36.65 185.335 36.446C185.707 36.242 186.124 36.14 186.586 36.14C186.988 36.14 187.348 36.23 187.666 36.41C187.984 36.584 188.236 36.851 188.422 37.211C188.608 37.571 188.701 38.033 188.701 38.597C188.701 39.155 188.611 39.617 188.431 39.983C188.251 40.343 188.002 40.613 187.684 40.793C187.366 40.973 187 41.063 186.586 41.063ZM186.721 40.1C186.991 40.1 187.231 40.04 187.441 39.92C187.657 39.8 187.828 39.626 187.954 39.398C188.086 39.17 188.152 38.903 188.152 38.597C188.152 38.285 188.086 38.018 187.954 37.796C187.828 37.568 187.657 37.394 187.441 37.274C187.231 37.154 186.991 37.094 186.721 37.094C186.451 37.094 186.208 37.154 185.992 37.274C185.782 37.394 185.611 37.568 185.479 37.796C185.353 38.018 185.29 38.285 185.29 38.597C185.29 38.903 185.353 39.17 185.479 39.398C185.611 39.626 185.782 39.8 185.992 39.92C186.208 40.04 186.451 40.1 186.721 40.1ZM188.179 41V39.866L188.224 38.588L188.134 37.31V34.322H189.25V41H188.179ZM193.394 41.063C192.86 41.063 192.392 40.958 191.99 40.748C191.594 40.532 191.285 40.238 191.063 39.866C190.847 39.494 190.739 39.071 190.739 38.597C190.739 38.117 190.844 37.694 191.054 37.328C191.27 36.956 191.564 36.665 191.936 36.455C192.314 36.245 192.743 36.14 193.223 36.14C193.691 36.14 194.108 36.242 194.474 36.446C194.84 36.65 195.128 36.938 195.338 37.31C195.548 37.682 195.653 38.12 195.653 38.624C195.653 38.672 195.65 38.726 195.644 38.786C195.644 38.846 195.641 38.903 195.635 38.957H191.63V38.21H195.041L194.6 38.444C194.606 38.168 194.549 37.925 194.429 37.715C194.309 37.505 194.144 37.34 193.934 37.22C193.73 37.1 193.493 37.04 193.223 37.04C192.947 37.04 192.704 37.1 192.494 37.22C192.29 37.34 192.128 37.508 192.008 37.724C191.894 37.934 191.837 38.183 191.837 38.471V38.651C191.837 38.939 191.903 39.194 192.035 39.416C192.167 39.638 192.353 39.809 192.593 39.929C192.833 40.049 193.109 40.109 193.421 40.109C193.691 40.109 193.934 40.067 194.15 39.983C194.366 39.899 194.558 39.767 194.726 39.587L195.329 40.28C195.113 40.532 194.84 40.727 194.51 40.865C194.186 40.997 193.814 41.063 193.394 41.063Z" fill="white"/>
<line x1="6.47974" y1="52" x2="121.888" y2="52" stroke="white" stroke-width="2"/>
<line x1="6.47974" y1="61" x2="121.888" y2="61" stroke="white" stroke-width="2"/>
<line x1="6.47974" y1="70" x2="121.888" y2="70" stroke="white" stroke-width="2"/>
<line x1="6.47974" y1="79" x2="121.888" y2="79" stroke="white" stroke-width="2"/>
<line x1="6.47974" y1="88" x2="121.888" y2="88" stroke="white" stroke-width="2"/>
<line x1="6.47974" y1="97" x2="121.888" y2="97" stroke="white" stroke-width="2"/>
<line x1="6.47974" y1="106" x2="121.888" y2="106" stroke="white" stroke-width="2"/>
</svg>
