<svg width="60" height="60" viewBox="0 0 60 60" fill="none" xmlns="http://www.w3.org/2000/svg">
<path d="M49.5 0H10.5C4.70101 0 0 4.70101 0 10.5V49.5C0 55.299 4.70101 60 10.5 60H49.5C55.299 60 60 55.299 60 49.5V10.5C60 4.70101 55.299 0 49.5 0Z" fill="#001E36"/>
<path d="M13.5 42.5381V17.1505C13.5 16.9688 13.591 16.8779 13.773 16.8779C15.7489 16.826 18.2578 16.8 21.2996 16.8C24.8874 16.8 27.5133 17.6048 29.1772 19.2142C30.8671 20.8236 31.7121 22.8095 31.7121 25.1717C31.7121 28.1051 30.6721 30.2856 28.5922 31.7133C26.5123 33.1411 23.8995 33.8549 20.7536 33.8549H18.4527V42.4992C18.4527 42.7068 18.3487 42.8107 18.1408 42.8107H13.812C13.604 42.8107 13.5 42.7198 13.5 42.5381ZM18.4527 20.5381V30.1169C18.8167 30.1688 19.6617 30.1947 20.9876 30.1947C22.7295 30.1947 24.1334 29.8183 25.1994 29.0655C26.2913 28.2868 26.8373 27.0278 26.8373 25.2885C26.8373 23.757 26.3563 22.5759 25.3944 21.7452C24.4584 20.9145 23.0935 20.4992 21.2996 20.4992C20.8576 20.4992 20.4156 20.5121 19.9737 20.5381C19.5577 20.5381 19.2067 20.5381 18.9207 20.5381C18.6607 20.5381 18.5047 20.5381 18.4527 20.5381Z" fill="#31A8FE"/>
<path d="M45.3181 28.3257C43.8622 27.4172 42.3412 26.9629 40.7553 26.9629C39.8454 26.9629 39.1694 27.1316 38.7274 27.4691C38.3114 27.8065 38.1035 28.2089 38.1035 28.6762C38.1035 29.1434 38.2854 29.5587 38.6494 29.9222C39.0134 30.2596 39.7804 30.662 40.9503 31.1293C43.1082 31.9599 44.6161 32.8425 45.4741 33.777C46.358 34.6856 46.8 35.8667 46.8 37.3204C46.8 39.0856 46.124 40.5133 44.7721 41.6036C43.4462 42.6679 41.6393 43.2 39.3514 43.2C37.0635 43.2 35.1916 42.7847 33.7357 41.954C33.5797 41.9021 33.5017 41.7723 33.5017 41.5646V37.9434C33.5017 37.8396 33.5277 37.7747 33.5797 37.7487C33.6577 37.6968 33.7227 37.6968 33.7747 37.7487C35.4646 38.9947 37.2715 39.6177 39.1954 39.6177C40.1053 39.6177 40.7943 39.462 41.2623 39.1505C41.7563 38.813 42.0033 38.3847 42.0033 37.8655C42.0033 37.3204 41.8083 36.8661 41.4183 36.5027C41.0283 36.1133 40.2613 35.698 39.1174 35.2567C37.0375 34.452 35.5816 33.5953 34.7496 32.6868C33.9437 31.7523 33.5407 30.5841 33.5407 29.1823C33.5407 27.5729 34.1517 26.2231 35.3736 25.1328C36.5955 24.0425 38.3374 23.4974 40.5993 23.4974C42.7052 23.4974 44.3301 23.7829 45.4741 24.354C45.6041 24.4319 45.6691 24.6006 45.6691 24.8602V28.0921C45.6691 28.4036 45.5521 28.4815 45.3181 28.3257Z" fill="#31A8FE"/>
</svg>
