<svg width="201" height="150" viewBox="0 0 201 150" fill="none" xmlns="http://www.w3.org/2000/svg">
<rect x="0.5" y="30.5" width="126.879" height="119" stroke="black"/>
<rect x="0.5" y="0.5" width="199.656" height="20" stroke="black"/>
<rect x="135.657" y="30.5" width="64.4991" height="55" stroke="black"/>
<rect x="135.657" y="94.5" width="64.4991" height="55" stroke="black"/>
<path d="M0.362866 30.6422L127.359 149.5" stroke="black"/>
<path d="M0.676819 149.642L127.359 30.5" stroke="black"/>
<path d="M135.677 30.5001L200.136 85.5001" stroke="black"/>
<path d="M135.677 85.5L200.136 30.5" stroke="black"/>
<path d="M135.677 94.5001L200.136 149.5" stroke="black"/>
<path d="M136.197 149L200.136 94.5" stroke="black"/>
<rect x="37.4281" y="82" width="53.0231" height="15" fill="#EFE4E4"/>
<path d="M44.9528 93.055C44.3808 93.055 43.8381 92.9597 43.3248 92.769C42.8188 92.571 42.4265 92.318 42.1478 92.01L42.4008 91.592C42.6648 91.8633 43.0241 92.0943 43.4788 92.285C43.9408 92.4683 44.4285 92.56 44.9418 92.56C45.4551 92.56 45.8731 92.494 46.1958 92.362C46.5258 92.2227 46.7678 92.0393 46.9218 91.812C47.0831 91.5847 47.1638 91.3317 47.1638 91.053C47.1638 90.723 47.0758 90.459 46.8998 90.261C46.7238 90.063 46.4928 89.9053 46.2068 89.788C45.9208 89.6707 45.6091 89.5717 45.2718 89.491C44.9345 89.4103 44.5935 89.326 44.2488 89.238C43.9041 89.1427 43.5888 89.0217 43.3028 88.875C43.0168 88.7283 42.7858 88.5303 42.6098 88.281C42.4411 88.0243 42.3568 87.6943 42.3568 87.291C42.3568 86.9243 42.4521 86.587 42.6428 86.279C42.8335 85.971 43.1305 85.7217 43.5338 85.531C43.9371 85.3403 44.4541 85.245 45.0848 85.245C45.5101 85.245 45.9281 85.3073 46.3388 85.432C46.7568 85.5567 47.1125 85.7253 47.4058 85.938L47.1968 86.389C46.8741 86.169 46.5258 86.0077 46.1518 85.905C45.7851 85.795 45.4295 85.74 45.0848 85.74C44.5935 85.74 44.1865 85.8097 43.8638 85.949C43.5411 86.0883 43.3028 86.2753 43.1488 86.51C42.9948 86.7373 42.9178 86.994 42.9178 87.28C42.9178 87.61 43.0021 87.874 43.1708 88.072C43.3468 88.27 43.5778 88.4277 43.8638 88.545C44.1498 88.6623 44.4651 88.7613 44.8098 88.842C45.1545 88.9227 45.4955 89.0107 45.8328 89.106C46.1701 89.194 46.4818 89.3113 46.7678 89.458C47.0538 89.6047 47.2848 89.8027 47.4608 90.052C47.6368 90.3013 47.7248 90.624 47.7248 91.02C47.7248 91.3793 47.6258 91.7167 47.4278 92.032C47.2298 92.34 46.9255 92.5893 46.5148 92.78C46.1115 92.9633 45.5908 93.055 44.9528 93.055ZM52.2829 93.044C51.7036 93.044 51.1903 92.9193 50.7429 92.67C50.3029 92.4207 49.9546 92.076 49.6979 91.636C49.4486 91.196 49.3239 90.6937 49.3239 90.129C49.3239 89.557 49.4413 89.0547 49.6759 88.622C49.9179 88.182 50.2479 87.8373 50.6659 87.588C51.0839 87.3387 51.5533 87.214 52.0739 87.214C52.5946 87.214 53.0603 87.335 53.4709 87.577C53.8889 87.819 54.2153 88.16 54.4499 88.6C54.6919 89.0327 54.8129 89.535 54.8129 90.107C54.8129 90.129 54.8093 90.1547 54.8019 90.184C54.8019 90.206 54.8019 90.2317 54.8019 90.261H49.7309V89.832H54.5049L54.2849 90.041C54.2923 89.5937 54.1969 89.194 53.9989 88.842C53.8083 88.4827 53.5479 88.204 53.2179 88.006C52.8879 87.8007 52.5066 87.698 52.0739 87.698C51.6486 87.698 51.2673 87.8007 50.9299 88.006C50.5999 88.204 50.3396 88.4827 50.1489 88.842C49.9583 89.194 49.8629 89.5973 49.8629 90.052V90.151C49.8629 90.6203 49.9656 91.0383 50.1709 91.405C50.3836 91.7643 50.6733 92.0467 51.0399 92.252C51.4066 92.45 51.8246 92.549 52.2939 92.549C52.6606 92.549 53.0016 92.483 53.3169 92.351C53.6396 92.219 53.9109 92.0173 54.1309 91.746L54.4499 92.109C54.2006 92.417 53.8853 92.6517 53.5039 92.813C53.1299 92.967 52.7229 93.044 52.2829 93.044ZM59.2864 93.044C58.7291 93.044 58.2304 92.9193 57.7904 92.67C57.3577 92.4207 57.0131 92.076 56.7564 91.636C56.5071 91.196 56.3824 90.6937 56.3824 90.129C56.3824 89.557 56.5071 89.051 56.7564 88.611C57.0131 88.171 57.3577 87.83 57.7904 87.588C58.2304 87.3387 58.7291 87.214 59.2864 87.214C59.7484 87.214 60.1664 87.302 60.5404 87.478C60.9217 87.654 61.2297 87.918 61.4644 88.27L61.0574 88.567C60.8521 88.2737 60.5954 88.0573 60.2874 87.918C59.9794 87.7787 59.6457 87.709 59.2864 87.709C58.8391 87.709 58.4357 87.8117 58.0764 88.017C57.7244 88.215 57.4457 88.4973 57.2404 88.864C57.0424 89.2233 56.9434 89.645 56.9434 90.129C56.9434 90.613 57.0424 91.0383 57.2404 91.405C57.4457 91.7643 57.7244 92.0467 58.0764 92.252C58.4357 92.45 58.8391 92.549 59.2864 92.549C59.6457 92.549 59.9794 92.4793 60.2874 92.34C60.5954 92.2007 60.8521 91.9843 61.0574 91.691L61.4644 91.988C61.2297 92.34 60.9217 92.604 60.5404 92.78C60.1664 92.956 59.7484 93.044 59.2864 93.044ZM65.3424 93.044C64.8364 93.044 64.4477 92.9047 64.1764 92.626C63.9124 92.3473 63.7804 91.966 63.7804 91.482V86.004H64.3304V91.427C64.3304 91.7937 64.4221 92.076 64.6054 92.274C64.7887 92.472 65.0527 92.571 65.3974 92.571C65.7567 92.571 66.0537 92.4647 66.2884 92.252L66.5194 92.637C66.3727 92.7763 66.1931 92.879 65.9804 92.945C65.7751 93.011 65.5624 93.044 65.3424 93.044ZM62.7244 87.731V87.258H66.1564V87.731H62.7244ZM68.5482 93V87.258H69.0982V93H68.5482ZM68.8232 85.861C68.6986 85.861 68.5922 85.817 68.5042 85.729C68.4162 85.641 68.3722 85.5383 68.3722 85.421C68.3722 85.2963 68.4162 85.19 68.5042 85.102C68.5922 85.014 68.6986 84.97 68.8232 84.97C68.9552 84.97 69.0616 85.014 69.1422 85.102C69.2302 85.1827 69.2742 85.2853 69.2742 85.41C69.2742 85.5347 69.2302 85.641 69.1422 85.729C69.0616 85.817 68.9552 85.861 68.8232 85.861ZM74.1554 93.044C73.6054 93.044 73.1141 92.9193 72.6814 92.67C72.2561 92.4207 71.9151 92.076 71.6584 91.636C71.4091 91.196 71.2844 90.6937 71.2844 90.129C71.2844 89.557 71.4091 89.0547 71.6584 88.622C71.9151 88.182 72.2561 87.8373 72.6814 87.588C73.1141 87.3387 73.6054 87.214 74.1554 87.214C74.7054 87.214 75.1967 87.3387 75.6294 87.588C76.0621 87.8373 76.4031 88.182 76.6524 88.622C76.9017 89.0547 77.0264 89.557 77.0264 90.129C77.0264 90.6937 76.9017 91.196 76.6524 91.636C76.4031 92.076 76.0621 92.4207 75.6294 92.67C75.1967 92.9193 74.7054 93.044 74.1554 93.044ZM74.1554 92.549C74.5954 92.549 74.9914 92.45 75.3434 92.252C75.6954 92.0467 75.9704 91.7607 76.1684 91.394C76.3664 91.0273 76.4654 90.6057 76.4654 90.129C76.4654 89.645 76.3664 89.2233 76.1684 88.864C75.9704 88.4973 75.6954 88.215 75.3434 88.017C74.9914 87.8117 74.5954 87.709 74.1554 87.709C73.7154 87.709 73.3194 87.8117 72.9674 88.017C72.6227 88.215 72.3477 88.4973 72.1424 88.864C71.9444 89.2233 71.8454 89.645 71.8454 90.129C71.8454 90.6057 71.9444 91.0273 72.1424 91.394C72.3477 91.7607 72.6227 92.0467 72.9674 92.252C73.3194 92.45 73.7154 92.549 74.1554 92.549ZM82.0327 87.214C82.502 87.214 82.909 87.3057 83.2537 87.489C83.6057 87.665 83.877 87.9363 84.0677 88.303C84.2657 88.6623 84.3647 89.1097 84.3647 89.645V93H83.8147V89.689C83.8147 89.0437 83.6497 88.5523 83.3197 88.215C82.997 87.8777 82.5423 87.709 81.9557 87.709C81.5083 87.709 81.1197 87.8007 80.7897 87.984C80.4597 88.1673 80.2067 88.424 80.0307 88.754C79.862 89.084 79.7777 89.48 79.7777 89.942V93H79.2277V87.258H79.7557V88.853L79.6787 88.677C79.8547 88.2223 80.1443 87.8667 80.5477 87.61C80.951 87.346 81.446 87.214 82.0327 87.214Z" fill="black"/>
<path d="M85.0261 6.3H85.5871V14H85.0261V6.3ZM79.8781 14H79.3171V6.3H79.8781V14ZM85.0921 10.337H79.8121V9.842H85.0921V10.337ZM90.9271 14.044C90.3477 14.044 89.8344 13.9193 89.3871 13.67C88.9471 13.4207 88.5987 13.076 88.3421 12.636C88.0927 12.196 87.9681 11.6937 87.9681 11.129C87.9681 10.557 88.0854 10.0547 88.3201 9.622C88.5621 9.182 88.8921 8.83733 89.3101 8.588C89.7281 8.33867 90.1974 8.214 90.7181 8.214C91.2387 8.214 91.7044 8.335 92.1151 8.577C92.5331 8.819 92.8594 9.16 93.0941 9.6C93.3361 10.0327 93.4571 10.535 93.4571 11.107C93.4571 11.129 93.4534 11.1547 93.4461 11.184C93.4461 11.206 93.4461 11.2317 93.4461 11.261H88.3751V10.832H93.1491L92.9291 11.041C92.9364 10.5937 92.8411 10.194 92.6431 9.842C92.4524 9.48267 92.1921 9.204 91.8621 9.006C91.5321 8.80067 91.1507 8.698 90.7181 8.698C90.2927 8.698 89.9114 8.80067 89.5741 9.006C89.2441 9.204 88.9837 9.48267 88.7931 9.842C88.6024 10.194 88.5071 10.5973 88.5071 11.052V11.151C88.5071 11.6203 88.6097 12.0383 88.8151 12.405C89.0277 12.7643 89.3174 13.0467 89.6841 13.252C90.0507 13.45 90.4687 13.549 90.9381 13.549C91.3047 13.549 91.6457 13.483 91.9611 13.351C92.2837 13.219 92.5551 13.0173 92.7751 12.746L93.0941 13.109C92.8447 13.417 92.5294 13.6517 92.1481 13.813C91.7741 13.967 91.3671 14.044 90.9271 14.044ZM99.1114 14V12.691L99.0894 12.493V10.337C99.0894 9.80167 98.9428 9.39467 98.6494 9.116C98.3634 8.83733 97.9418 8.698 97.3844 8.698C96.9884 8.698 96.6181 8.76767 96.2734 8.907C95.9361 9.039 95.6464 9.21133 95.4044 9.424L95.1294 9.028C95.4154 8.77133 95.7601 8.57333 96.1634 8.434C96.5668 8.28733 96.9884 8.214 97.4284 8.214C98.1398 8.214 98.6861 8.39367 99.0674 8.753C99.4488 9.11233 99.6394 9.64767 99.6394 10.359V14H99.1114ZM97.0434 14.044C96.6181 14.044 96.2478 13.978 95.9324 13.846C95.6244 13.7067 95.3861 13.5123 95.2174 13.263C95.0561 13.0137 94.9754 12.7277 94.9754 12.405C94.9754 12.1117 95.0414 11.8477 95.1734 11.613C95.3128 11.371 95.5401 11.1767 95.8554 11.03C96.1708 10.876 96.5924 10.799 97.1204 10.799H99.2324V11.228H97.1314C96.5374 11.228 96.1194 11.338 95.8774 11.558C95.6428 11.778 95.5254 12.053 95.5254 12.383C95.5254 12.7497 95.6648 13.043 95.9434 13.263C96.2221 13.483 96.6144 13.593 97.1204 13.593C97.6044 13.593 98.0114 13.483 98.3414 13.263C98.6788 13.043 98.9281 12.724 99.0894 12.306L99.2434 12.68C99.0894 13.098 98.8254 13.4317 98.4514 13.681C98.0848 13.923 97.6154 14.044 97.0434 14.044ZM104.612 14.044C104.076 14.044 103.592 13.923 103.16 13.681C102.734 13.4317 102.397 13.087 102.148 12.647C101.898 12.207 101.774 11.701 101.774 11.129C101.774 10.5497 101.898 10.0437 102.148 9.611C102.397 9.171 102.734 8.83 103.16 8.588C103.592 8.33867 104.076 8.214 104.612 8.214C105.118 8.214 105.572 8.33133 105.976 8.566C106.386 8.80067 106.709 9.13433 106.944 9.567C107.186 9.99967 107.307 10.5203 107.307 11.129C107.307 11.723 107.189 12.24 106.955 12.68C106.72 13.12 106.397 13.4573 105.987 13.692C105.583 13.9267 105.125 14.044 104.612 14.044ZM104.645 13.549C105.085 13.549 105.477 13.45 105.822 13.252C106.174 13.0467 106.449 12.7607 106.647 12.394C106.852 12.0273 106.955 11.6057 106.955 11.129C106.955 10.645 106.852 10.2233 106.647 9.864C106.449 9.49733 106.174 9.215 105.822 9.017C105.477 8.81167 105.085 8.709 104.645 8.709C104.205 8.709 103.809 8.81167 103.457 9.017C103.112 9.215 102.837 9.49733 102.632 9.864C102.434 10.2233 102.335 10.645 102.335 11.129C102.335 11.6057 102.434 12.0273 102.632 12.394C102.837 12.7607 103.112 13.0467 103.457 13.252C103.809 13.45 104.205 13.549 104.645 13.549ZM106.966 14V12.119L107.065 11.118L106.955 10.117V5.838H107.505V14H106.966ZM112.65 14.044C112.071 14.044 111.558 13.9193 111.11 13.67C110.67 13.4207 110.322 13.076 110.065 12.636C109.816 12.196 109.691 11.6937 109.691 11.129C109.691 10.557 109.809 10.0547 110.043 9.622C110.285 9.182 110.615 8.83733 111.033 8.588C111.451 8.33867 111.921 8.214 112.441 8.214C112.962 8.214 113.428 8.335 113.838 8.577C114.256 8.819 114.583 9.16 114.817 9.6C115.059 10.0327 115.18 10.535 115.18 11.107C115.18 11.129 115.177 11.1547 115.169 11.184C115.169 11.206 115.169 11.2317 115.169 11.261H110.098V10.832H114.872L114.652 11.041C114.66 10.5937 114.564 10.194 114.366 9.842C114.176 9.48267 113.915 9.204 113.585 9.006C113.255 8.80067 112.874 8.698 112.441 8.698C112.016 8.698 111.635 8.80067 111.297 9.006C110.967 9.204 110.707 9.48267 110.516 9.842C110.326 10.194 110.23 10.5973 110.23 11.052V11.151C110.23 11.6203 110.333 12.0383 110.538 12.405C110.751 12.7643 111.041 13.0467 111.407 13.252C111.774 13.45 112.192 13.549 112.661 13.549C113.028 13.549 113.369 13.483 113.684 13.351C114.007 13.219 114.278 13.0173 114.498 12.746L114.817 13.109C114.568 13.417 114.253 13.6517 113.871 13.813C113.497 13.967 113.09 14.044 112.65 14.044ZM117.377 14V8.258H117.905V9.831L117.85 9.655C118.011 9.193 118.283 8.83733 118.664 8.588C119.045 8.33867 119.522 8.214 120.094 8.214V8.753C120.072 8.753 120.05 8.753 120.028 8.753C120.006 8.74567 119.984 8.742 119.962 8.742C119.324 8.742 118.825 8.94367 118.466 9.347C118.107 9.743 117.927 10.2967 117.927 11.008V14H117.377Z" fill="black"/>
</svg>
